<svg xmlns="http://www.w3.org/2000/svg" viewBox="0 0 500 300">
  <defs>
    <linearGradient id="dashBg" x1="0%" y1="0%" x2="100%" y2="100%">
      <stop offset="0%" style="stop-color:#0f0f1a"/>
      <stop offset="100%" style="stop-color:#1a1a2e"/>
    </linearGradient>
    <linearGradient id="blueGrad" x1="0%" y1="0%" x2="100%" y2="100%">
      <stop offset="0%" style="stop-color:#667eea"/>
      <stop offset="100%" style="stop-color:#764ba2"/>
    </linearGradient>
    <linearGradient id="greenGrad" x1="0%" y1="0%" x2="100%" y2="100%">
      <stop offset="0%" style="stop-color:#11998e"/>
      <stop offset="100%" style="stop-color:#38ef7d"/>
    </linearGradient>
    <linearGradient id="orangeGrad" x1="0%" y1="0%" x2="100%" y2="100%">
      <stop offset="0%" style="stop-color:#f093fb"/>
      <stop offset="100%" style="stop-color:#f5576c"/>
    </linearGradient>
    <filter id="dashGlow">
      <feDropShadow dx="0" dy="4" stdDeviation="8" flood-color="#00000050"/>
    </filter>
  </defs>
  <!-- Background -->
  <rect width="500" height="300" rx="16" fill="url(#dashBg)"/>
  <!-- Header -->
  <text x="25" y="30" font-family="system-ui" font-weight="600" font-size="14" fill="white">Analytics Overview</text>
  <text x="25" y="48" font-family="system-ui" font-size="10" fill="#ffffff50">Last 30 days</text>
  <!-- Stats cards -->
  <!-- Revenue card -->
  <rect x="25" y="65" width="145" height="70" rx="10" fill="#ffffff08"/>
  <text x="40" y="90" font-family="system-ui" font-size="10" fill="#ffffff60">Revenue</text>
  <text x="40" y="115" font-family="system-ui" font-weight="700" font-size="22" fill="white">$24.5K</text>
  <text x="40" y="128" font-family="system-ui" font-size="9" fill="#38ef7d">↑ 12.5%</text>
  <!-- Users card -->
  <rect x="180" y="65" width="145" height="70" rx="10" fill="#ffffff08"/>
  <text x="195" y="90" font-family="system-ui" font-size="10" fill="#ffffff60">Users</text>
  <text x="195" y="115" font-family="system-ui" font-weight="700" font-size="22" fill="white">8,420</text>
  <text x="195" y="128" font-family="system-ui" font-size="9" fill="#38ef7d">↑ 8.2%</text>
  <!-- Orders card -->
  <rect x="335" y="65" width="140" height="70" rx="10" fill="#ffffff08"/>
  <text x="350" y="90" font-family="system-ui" font-size="10" fill="#ffffff60">Orders</text>
  <text x="350" y="115" font-family="system-ui" font-weight="700" font-size="22" fill="white">1,284</text>
  <text x="350" y="128" font-family="system-ui" font-size="9" fill="#f5576c">↓ 3.1%</text>
  <!-- Chart area -->
  <rect x="25" y="145" width="300" height="130" rx="10" fill="#ffffff05"/>
  <text x="40" y="168" font-family="system-ui" font-size="11" fill="#ffffff80">Revenue Trend</text>
  <!-- Grid lines -->
  <g stroke="#ffffff10" stroke-width="1">
    <line x1="40" y1="190" x2="310" y2="190"/>
    <line x1="40" y1="220" x2="310" y2="220"/>
    <line x1="40" y1="250" x2="310" y2="250"/>
  </g>
  <!-- Area chart -->
  <path d="M40,250 L70,230 L100,240 L130,210 L160,220 L190,190 L220,200 L250,180 L280,195 L310,175 L310,250 Z" fill="url(#blueGrad)" opacity="0.3"/>
  <path d="M40,250 L70,230 L100,240 L130,210 L160,220 L190,190 L220,200 L250,180 L280,195 L310,175" fill="none" stroke="url(#blueGrad)" stroke-width="2"/>
  <!-- Chart dots -->
  <g fill="white">
    <circle cx="70" cy="230" r="3"/><circle cx="130" cy="210" r="3"/>
    <circle cx="190" cy="190" r="3"/><circle cx="250" cy="180" r="3"/>
    <circle cx="310" cy="175" r="4" fill="url(#blueGrad)"/>
  </g>
  <!-- Pie chart area -->
  <rect x="335" y="145" width="140" height="130" rx="10" fill="#ffffff05"/>
  <text x="350" y="168" font-family="system-ui" font-size="11" fill="#ffffff80">Traffic Sources</text>
  <!-- Pie chart -->
  <circle cx="405" cy="225" r="40" fill="none" stroke="url(#blueGrad)" stroke-width="20" stroke-dasharray="100 151" stroke-dashoffset="0" transform="rotate(-90,405,225)"/>
  <circle cx="405" cy="225" r="40" fill="none" stroke="url(#greenGrad)" stroke-width="20" stroke-dasharray="60 191" stroke-dashoffset="-100" transform="rotate(-90,405,225)"/>
  <circle cx="405" cy="225" r="40" fill="none" stroke="url(#orangeGrad)" stroke-width="20" stroke-dasharray="40 211" stroke-dashoffset="-160" transform="rotate(-90,405,225)"/>
  <!-- Legend -->
  <circle cx="350" cy="210" r="4" fill="url(#blueGrad)"/>
  <text x="360" y="213" font-family="system-ui" font-size="8" fill="#ffffff60">Direct</text>
  <circle cx="350" cy="225" r="4" fill="url(#greenGrad)"/>
  <text x="360" y="228" font-family="system-ui" font-size="8" fill="#ffffff60">Organic</text>
  <circle cx="350" cy="240" r="4" fill="url(#orangeGrad)"/>
  <text x="360" y="243" font-family="system-ui" font-size="8" fill="#ffffff60">Social</text>
</svg>