<svg xmlns="http://www.w3.org/2000/svg" viewBox="0 0 400 300">
  <defs>
    <linearGradient id="frameGrad" x1="0%" y1="0%" x2="100%" y2="100%">
      <stop offset="0%" style="stop-color:#B8860B"/>
      <stop offset="50%" style="stop-color:#DAA520"/>
      <stop offset="100%" style="stop-color:#B8860B"/>
    </linearGradient>
  </defs>
  <!-- Outer frame -->
  <rect x="10" y="10" width="380" height="280" rx="8" fill="none" stroke="url(#frameGrad)" stroke-width="3"/>
  <!-- Inner frame -->
  <rect x="20" y="20" width="360" height="260" rx="6" fill="none" stroke="url(#frameGrad)" stroke-width="1" opacity="0.5"/>
  <!-- Corner ornaments - top left -->
  <path d="M30,30 Q30,60 60,30" fill="none" stroke="url(#frameGrad)" stroke-width="2"/>
  <path d="M30,30 Q60,30 30,60" fill="none" stroke="url(#frameGrad)" stroke-width="2"/>
  <circle cx="30" cy="30" r="4" fill="url(#frameGrad)"/>
  <!-- Corner ornaments - top right -->
  <path d="M370,30 Q370,60 340,30" fill="none" stroke="url(#frameGrad)" stroke-width="2"/>
  <path d="M370,30 Q340,30 370,60" fill="none" stroke="url(#frameGrad)" stroke-width="2"/>
  <circle cx="370" cy="30" r="4" fill="url(#frameGrad)"/>
  <!-- Corner ornaments - bottom left -->
  <path d="M30,270 Q30,240 60,270" fill="none" stroke="url(#frameGrad)" stroke-width="2"/>
  <path d="M30,270 Q60,270 30,240" fill="none" stroke="url(#frameGrad)" stroke-width="2"/>
  <circle cx="30" cy="270" r="4" fill="url(#frameGrad)"/>
  <!-- Corner ornaments - bottom right -->
  <path d="M370,270 Q370,240 340,270" fill="none" stroke="url(#frameGrad)" stroke-width="2"/>
  <path d="M370,270 Q340,270 370,240" fill="none" stroke="url(#frameGrad)" stroke-width="2"/>
  <circle cx="370" cy="270" r="4" fill="url(#frameGrad)"/>
  <!-- Top center ornament -->
  <path d="M180,10 Q200,25 220,10" fill="none" stroke="url(#frameGrad)" stroke-width="1.5"/>
  <circle cx="200" cy="18" r="3" fill="url(#frameGrad)"/>
  <!-- Bottom center ornament -->
  <path d="M180,290 Q200,275 220,290" fill="none" stroke="url(#frameGrad)" stroke-width="1.5"/>
  <circle cx="200" cy="282" r="3" fill="url(#frameGrad)"/>
  <!-- Side decorations -->
  <line x1="10" y1="150" x2="25" y2="150" stroke="url(#frameGrad)" stroke-width="1.5"/>
  <circle cx="28" cy="150" r="2.5" fill="url(#frameGrad)"/>
  <line x1="375" y1="150" x2="390" y2="150" stroke="url(#frameGrad)" stroke-width="1.5"/>
  <circle cx="372" cy="150" r="2.5" fill="url(#frameGrad)"/>
</svg>