<svg xmlns="http://www.w3.org/2000/svg" viewBox="0 0 400 280">
  <defs>
    <linearGradient id="playerBg" x1="0%" y1="0%" x2="100%" y2="100%">
      <stop offset="0%" style="stop-color:#1e1e2f"/>
      <stop offset="100%" style="stop-color:#151521"/>
    </linearGradient>
    <linearGradient id="albumGrad" x1="0%" y1="0%" x2="100%" y2="100%">
      <stop offset="0%" style="stop-color:#ff6b6b"/>
      <stop offset="100%" style="stop-color:#ee5a24"/>
    </linearGradient>
    <linearGradient id="progressGrad" x1="0%" y1="0%" x2="100%" y2="0%">
      <stop offset="0%" style="stop-color:#ff6b6b"/>
      <stop offset="100%" style="stop-color:#feca57"/>
    </linearGradient>
    <filter id="playerGlow">
      <feDropShadow dx="0" dy="8" stdDeviation="16" flood-color="#ff6b6b30"/>
    </filter>
    <filter id="albumGlow">
      <feDropShadow dx="0" dy="0" stdDeviation="8" flood-color="#ff6b6b50"/>
    </filter>
  </defs>
  <!-- Background -->
  <rect width="400" height="280" rx="20" fill="url(#playerBg)" filter="url(#playerGlow)"/>
  <!-- Album art -->
  <rect x="30" y="30" width="100" height="100" rx="12" fill="url(#albumGrad)" filter="url(#albumGlow)"/>
  <!-- Music note icon on album -->
  <circle cx="80" cy="80" r="20" fill="#ffffff30"/>
  <circle cx="75" cy="85" r="6" fill="white"/>
  <rect x="80" y="60" width="3" height="28" rx="1" fill="white"/>
  <circle cx="88" cy="78" r="5" fill="white"/>
  <!-- Song info -->
  <text x="150" y="60" font-family="system-ui" font-weight="600" font-size="18" fill="white">Sunset Vibes</text>
  <text x="150" y="82" font-family="system-ui" font-size="13" fill="#ffffff80">Chill Beats</text>
  <text x="150" y="102" font-family="system-ui" font-size="11" fill="#ffffff50">Album: Summer Nights</text>
  <!-- Like button -->
  <path d="M350 55 L355 50 L362 50 L367 55 L367 62 L358 72 L350 62 Z" fill="#ff6b6b" opacity="0.9"/>
  <!-- Progress bar background -->
  <rect x="30" y="155" width="340" height="4" rx="2" fill="#ffffff20"/>
  <!-- Progress bar -->
  <rect x="30" y="155" width="180" height="4" rx="2" fill="url(#progressGrad)"/>
  <!-- Progress dot -->
  <circle cx="210" cy="157" r="6" fill="white"/>
  <!-- Time -->
  <text x="30" y="180" font-family="system-ui" font-size="10" fill="#ffffff60">2:34</text>
  <text x="350" y="180" text-anchor="end" font-family="system-ui" font-size="10" fill="#ffffff60">4:12</text>
  <!-- Controls -->
  <!-- Previous -->
  <g transform="translate(120, 210)">
    <polygon points="0,10 15,0 15,20" fill="#ffffff80"/>
    <polygon points="15,10 30,0 30,20" fill="#ffffff80"/>
  </g>
  <!-- Play button -->
  <circle cx="200" cy="220" r="25" fill="url(#progressGrad)"/>
  <polygon points="193,208 193,232 215,220" fill="white"/>
  <!-- Next -->
  <g transform="translate(250, 210)">
    <polygon points="0,0 0,20 15,10" fill="#ffffff80"/>
    <polygon points="15,0 15,20 30,10" fill="#ffffff80"/>
  </g>
  <!-- Volume -->
  <rect x="320" y="215" width="50" height="3" rx="1.5" fill="#ffffff30"/>
  <rect x="320" y="215" width="30" height="3" rx="1.5" fill="#ffffff80"/>
  <circle cx="285" cy="217" r="8" fill="none" stroke="#ffffff60" stroke-width="1.5"/>
  <rect x="295" y="210" width="2" height="14" rx="1" fill="#ffffff60"/>
  <!-- Playlist indicator -->
  <rect x="30" y="250" width="80" height="20" rx="10" fill="#ffffff10"/>
  <text x="50" y="264" font-family="system-ui" font-size="9" fill="#ffffff80">♪ Playlist</text>
</svg>