<svg xmlns="http://www.w3.org/2000/svg" viewBox="0 0 800 560">
  <defs>
    <linearGradient id="jdBg" x1="0%" y1="0%" x2="100%" y2="100%">
      <stop offset="0%" style="stop-color:#E4393C"/>
      <stop offset="50%" style="stop-color:#F23D40"/>
      <stop offset="100%" style="stop-color:#C8161D"/>
    </linearGradient>
    <linearGradient id="jdGold" x1="0%" y1="0%" x2="0%" y2="100%">
      <stop offset="0%" style="stop-color:#FFF176"/>
      <stop offset="50%" style="stop-color:#FFD54F"/>
      <stop offset="100%" style="stop-color:#FFAB00"/>
    </linearGradient>
    <linearGradient id="jdBlue" x1="0%" y1="0%" x2="100%" y2="0%">
      <stop offset="0%" style="stop-color:#1976D2"/>
      <stop offset="100%" style="stop-color:#2196F3"/>
    </linearGradient>
    <filter id="jdShadow">
      <feDropShadow dx="0" dy="10" stdDeviation="20" flood-color="#00000030"/>
    </filter>
    <filter id="jdGlow">
      <feDropShadow dx="0" dy="4" stdDeviation="8" flood-color="#FFD54F60"/>
    </filter>
  </defs>
  <!-- Background -->
  <rect width="800" height="560" fill="url(#jdBg)"/>
  <!-- Decorative elements -->
  <polygon points="0,0 200,0 0,200" fill="#ffffff10"/>
  <polygon points="800,560 600,560 800,360" fill="#ffffff10"/>
  <!-- Pattern circles -->
  <circle cx="700" cy="100" r="60" fill="#ffffff08"/>
  <circle cx="100" cy="460" r="80" fill="#ffffff08"/>
  <!-- Confetti -->
  <rect x="50" y="30" width="8" height="8" fill="#FFD54F" transform="rotate(45,54,34)"/>
  <rect x="750" y="50" width="6" height="6" fill="#FFF176" transform="rotate(30,753,53)"/>
  <rect x="600" y="20" width="10" height="10" fill="#2196F3" transform="rotate(60,605,25)"/>
  <rect x="150" y="530" width="8" height="8" fill="#FFD54F" transform="rotate(45,154,534)"/>
  <rect x="650" y="500" width="6" height="6" fill="#FFF176" transform="rotate(30,653,503)"/>
  <!-- Main card -->
  <rect x="40" y="80" width="720" height="420" rx="24" fill="#ffffff15" filter="url(#jdShadow)"/>
  <!-- Header -->
  <rect x="40" y="80" width="720" height="60" rx="24" fill="#ffffff20"/>
  <rect x="40" y="110" width="720" height="30" fill="#ffffff20"/>
  <text x="400" y="115" text-anchor="middle" font-family="Microsoft YaHei, SimHei, sans-serif" font-weight="900" font-size="32" fill="url(#jdGold)" filter="url(#jdGlow)">618年中大促</text>
  <!-- JD logo placeholder -->
  <rect x="60" y="90" width="80" height="40" rx="8" fill="url(#jdBlue)"/>
  <text x="100" y="118" text-anchor="middle" font-family="Arial, sans-serif" font-weight="900" font-size="18" fill="white">JD</text>
  <!-- Main headline -->
  <text x="400" y="180" text-anchor="middle" font-family="Microsoft YaHei, SimHei, sans-serif" font-weight="900" font-size="36" fill="white">全场狂欢 · 超值钜惠</text>
  <!-- Sub text -->
  <text x="400" y="210" text-anchor="middle" font-family="Microsoft YaHei, SimHei, sans-serif" font-weight="600" font-size="18" fill="#ffffff90">百亿补贴 · 品质保障 · 正品低价</text>
  <!-- Price showcase -->
  <rect x="60" y="230" width="200" height="130" rx="16" fill="#ffffff25"/>
  <rect x="70" y="240" width="180" height="80" rx="12" fill="#ffffff35"/>
  <text x="160" y="290" text-anchor="middle" font-family="Microsoft YaHei, SimHei, sans-serif" font-weight="600" font-size="14" fill="white">数码相机</text>
  <text x="160" y="330" text-anchor="middle" font-family="Microsoft YaHei, SimHei, sans-serif" font-weight="900" font-size="24" fill="url(#jdGold)">¥1299</text>
  <text x="160" y="355" text-anchor="middle" font-family="Microsoft YaHei, SimHei, sans-serif" font-size="11" fill="#ffffff70">补贴价 ¥2999</text>

  <rect x="280" y="230" width="200" height="130" rx="16" fill="#ffffff25"/>
  <rect x="290" y="240" width="180" height="80" rx="12" fill="#ffffff35"/>
  <text x="380" y="290" text-anchor="middle" font-family="Microsoft YaHei, SimHei, sans-serif" font-weight="600" font-size="14" fill="white">智能手表</text>
  <text x="380" y="330" text-anchor="middle" font-family="Microsoft YaHei, SimHei, sans-serif" font-weight="900" font-size="24" fill="url(#jdGold)">¥599</text>
  <text x="380" y="355" text-anchor="middle" font-family="Microsoft YaHei, SimHei, sans-serif" font-size="11" fill="#ffffff70">补贴价 ¥1299</text>

  <rect x="500" y="230" width="200" height="130" rx="16" fill="#ffffff25"/>
  <rect x="510" y="240" width="180" height="80" rx="12" fill="#ffffff35"/>
  <text x="600" y="290" text-anchor="middle" font-family="Microsoft YaHei, SimHei, sans-serif" font-weight="600" font-size="14" fill="white">蓝牙耳机</text>
  <text x="600" y="330" text-anchor="middle" font-family="Microsoft YaHei, SimHei, sans-serif" font-weight="900" font-size="24" fill="url(#jdGold)">¥199</text>
  <text x="600" y="355" text-anchor="middle" font-family="Microsoft YaHei, SimHei, sans-serif" font-size="11" fill="#ffffff70">补贴价 ¥399</text>
  <!-- Special offer badge -->
  <circle cx="710" cy="180" r="40" fill="url(#jdGold)"/>
  <text x="710" y="175" text-anchor="middle" font-family="Arial, sans-serif" font-weight="900" font-size="20" fill="#C8161D">省</text>
  <text x="710" y="200" text-anchor="middle" font-family="Arial, sans-serif" font-weight="700" font-size="14" fill="#C8161D">¥1700</text>
  <!-- Coupon section -->
  <rect x="60" y="380" width="240" height="80" rx="12" fill="#ffffff20"/>
  <rect x="60" y="380" width="60" height="80" fill="url(#jdGold)"/>
  <text x="90" y="430" text-anchor="middle" font-family="Arial, sans-serif" font-weight="900" font-size="24" fill="#C8161D">¥50</text>
  <text x="180" y="410" text-anchor="middle" font-family="Microsoft YaHei, SimHei, sans-serif" font-weight="600" font-size="14" fill="white">满200可用</text>
  <text x="180" y="430" text-anchor="middle" font-family="Microsoft YaHei, SimHei, sans-serif" font-size="11" fill="#ffffff70">全品类通用券</text>
  <text x="270" y="430" text-anchor="middle" font-family="Microsoft YaHei, SimHei, sans-serif" font-weight="600" font-size="12" fill="#FFD54F">领取</text>

  <rect x="320" y="380" width="240" height="80" rx="12" fill="#ffffff20"/>
  <rect x="320" y="380" width="60" height="80" fill="url(#jdGold)"/>
  <text x="350" y="430" text-anchor="middle" font-family="Arial, sans-serif" font-weight="900" font-size="24" fill="#C8161D">¥100</text>
  <text x="440" y="410" text-anchor="middle" font-family="Microsoft YaHei, SimHei, sans-serif" font-weight="600" font-size="14" fill="white">满500可用</text>
  <text x="440" y="430" text-anchor="middle" font-family="Microsoft YaHei, SimHei, sans-serif" font-size="11" fill="#ffffff70">数码家电专用</text>
  <text x="530" y="430" text-anchor="middle" font-family="Microsoft YaHei, SimHei, sans-serif" font-weight="600" font-size="12" fill="#FFD54F">领取</text>

  <rect x="580" y="380" width="160" height="80" rx="12" fill="#ffffff20"/>
  <text x="660" y="410" text-anchor="middle" font-family="Microsoft YaHei, SimHei, sans-serif" font-weight="600" font-size="14" fill="white">新人专享</text>
  <text x="660" y="440" text-anchor="middle" font-family="Microsoft YaHei, SimHei, sans-serif" font-weight="900" font-size="18" fill="url(#jdGold)">首单立减</text>
  <!-- CTA -->
  <rect x="200" y="480" width="400" height="50" rx="25" fill="url(#jdGold)"/>
  <text x="400" y="510" text-anchor="middle" font-family="Microsoft YaHei, SimHei, sans-serif" font-weight="700" font-size="20" fill="#C8161D">立即参与抢购 →</text>
  <!-- Footer -->
  <text x="400" y="550" text-anchor="middle" font-family="Microsoft YaHei, SimHei, sans-serif" font-size="11" fill="#ffffff70">京东618 · 多快好省 · 品质生活</text>
</svg>